Coordinates
datacolumns 11
datarows 56
range 1.2 1.75
inDegrees=yes
Units are S.I. units (second, meters, Newtons, ...)
If the header above contains a line with 'inDegrees', this indicates whether rotational values are in degrees (yes) or radians (no).
endheader
time	pelvis_tilt	pelvis_tx	pelvis_ty	hip_flexion_l	hip_flexion_r	knee_angle_l	knee_angle_r	ankle_angle_l	ankle_angle_r	lumbar
1.2	-22.45870804	0.17025827	0.81993403	69.65929233	69.65929233	-60.17784609	-60.17784609	13.21721337	13.21721337	-33.02300477
1.21	-22.28610746	0.1724405	0.82383044	68.84565311	68.84565311	-59.43319434	-59.43319434	12.94987326	12.94987326	-32.82252814
1.22	-22.42709265	0.1743581	0.82695086	68.40734833	68.40734833	-58.73018775	-58.73018775	12.94686128	12.94686128	-32.19444325
1.23	-22.31014684	0.17648216	0.83071364	67.6550327	67.6550327	-57.97010288	-57.97010288	12.69967289	12.69967289	-31.88788581
1.24	-22.44119155	0.17839328	0.83386197	67.19797074	67.19797074	-57.24382629	-57.24382629	12.68905315	12.68905315	-31.24596404
1.25	-22.52786867	0.18035696	0.83712735	66.68001437	66.68001437	-56.49703928	-56.49703928	12.6399906	12.6399906	-30.65203595
1.26	-22.29265401	0.18257063	0.84116488	65.77733139	65.77733139	-55.69076249	-55.69076249	12.27342553	12.27342553	-30.46877982
1.27	-22.43320173	0.18452258	0.84427613	65.32522918	65.32522918	-54.95182511	-54.95182511	12.27032518	12.27032518	-29.78740004
1.28	-22.49358259	0.1865578	0.84755879	64.77030644	64.77030644	-54.18437697	-54.18437697	12.20131053	12.20131053	-29.18927262
1.29	-22.21030544	0.1888457	0.85168155	63.80451544	63.80451544	-53.3548054	-53.3548054	11.79245997	11.79245997	-29.04279408
1.3	-22.32573451	0.19090131	0.85476586	63.31965614	63.31965614	-52.6094716	-52.6094716	11.78453832	11.78453832	-28.34487326
1.31	-22.11401769	0.19315388	0.85864628	62.44707115	62.44707115	-51.79499286	-51.79499286	11.50699208	11.50699208	-28.08848058
1.32	-22.20292279	0.19529084	0.86173438	61.92417082	61.92417082	-51.03845471	-51.03845471	11.48897861	11.48897861	-27.39805704
1.33	-22.2176343	0.19746427	0.86498317	61.31474184	61.31474184	-50.25610521	-50.25610521	11.42563351	11.42563351	-26.80144651
1.34	-22.09573698	0.19973746	0.86853255	60.53885287	60.53885287	-49.44727692	-49.44727692	11.26993702	11.26993702	-26.3816982
1.35	-21.98441696	0.20204167	0.87200734	59.77349386	59.77349386	-48.64034852	-48.64034852	11.12737807	11.12737807	-25.93322949
1.36	-21.61519173	0.20453855	0.87603805	58.70542443	58.70542443	-47.80134891	-47.80134891	10.8061836	10.8061836	-25.81310133
1.37	-21.68634565	0.20670798	0.87897971	58.16717865	58.16717865	-47.03655047	-47.03655047	10.80085954	10.80085954	-25.10673264
1.38	-21.35509152	0.20919885	0.88285714	57.13625446	57.13625446	-46.18474263	-46.18474263	10.54453469	10.54453469	-24.93016313
1.39	-21.42389468	0.21140819	0.88569299	56.60210126	56.60210126	-45.42905715	-45.42905715	10.54806077	10.54806077	-24.21159956
1.4	-21.05782119	0.21396727	0.88953343	55.53280429	55.53280429	-44.58190479	-44.58190479	10.30243362	10.30243362	-24.06379103
1.41	-21.10395755	0.21624828	0.89230022	54.97859681	54.97859681	-43.84014947	-43.84014947	10.30139956	10.30139956	-23.36114678
1.42	-20.73032495	0.21886724	0.89603204	53.90792755	53.90792755	-43.00694698	-43.00694698	10.07519553	10.07519553	-23.22472914
1.43	-20.71426134	0.22125992	0.8988327	53.27081893	53.27081893	-42.2320375	-42.2320375	10.0444081	10.0444081	-22.59047169
1.44	-20.36601227	0.22391075	0.90234889	52.24662883	52.24662883	-41.43512376	-41.43512376	9.83448265	9.83448265	-22.40850013
1.45	-20.17611455	0.22647474	0.90541756	51.41338949	51.41338949	-40.65858169	-40.65858169	9.70833627	9.70833627	-22.01232936
1.46	-19.97804749	0.22906305	0.90842827	50.57628819	50.57628819	-39.88946836	-39.88946836	9.57492168	9.57492168	-21.62714468
1.47	-19.77270782	0.23167247	0.91137825	49.73672209	49.73672209	-39.12669577	-39.12669577	9.43621981	9.43621981	-21.25218169
1.48	-19.55861846	0.23429251	0.91425059	48.89614832	48.89614832	-38.3791685	-38.3791685	9.29460091	9.29460091	-20.88681064
1.49	-19.33388789	0.2369343	0.91707133	48.05010536	48.05010536	-37.63454236	-37.63454236	9.14820871	9.14820871	-20.53744485
1.5	-19.10386078	0.23958527	0.91980973	47.20578048	47.20578048	-36.90602566	-36.90602566	9.00022067	9.00022067	-20.19620013
1.51	-18.86672953	0.24223555	0.92248282	46.36293722	46.36293722	-36.18826615	-36.18826615	8.8487599	8.8487599	-19.86438756
1.52	-18.62718299	0.24488069	0.92507387	45.52706701	45.52706701	-35.4836414	-35.4836414	8.69463631	8.69463631	-19.53614645
1.53	-18.38459359	0.24751868	0.92757629	44.69780376	44.69780376	-34.79234487	-34.79234487	8.53703024	8.53703024	-19.20942699
1.54	-18.35108189	0.2500079	0.92955784	44.13148496	44.13148496	-34.15850567	-34.15850567	8.4993314	8.4993314	-18.61786457
1.55	-17.91257301	0.25276248	0.9323427	43.08289656	43.08289656	-33.45127605	-33.45127605	8.22187744	8.22187744	-18.55602136
1.56	-17.67895831	0.25537521	0.9346006	42.2908578	42.2908578	-32.80069278	-32.80069278	8.06678972	8.06678972	-18.22452022
1.57	-17.44499014	0.25798665	0.93678101	41.50907602	41.50907602	-32.1668821	-32.1668821	7.91658393	7.91658393	-17.89618862
1.58	-17.21191162	0.26059772	0.938888	40.73767332	40.73767332	-31.54905415	-31.54905415	7.77860131	7.77860131	-17.56784977
1.59	-16.98101685	0.26320774	0.9409131	39.97988391	39.97988391	-30.95247701	-30.95247701	7.65882119	7.65882119	-17.2382646
1.6	-16.74894473	0.2658202	0.94286815	39.23184209	39.23184209	-30.37657236	-30.37657236	7.5590791	7.5590791	-16.91156243
1.61	-16.51512315	0.26843519	0.94475467	38.49352303	38.49352303	-29.82238334	-29.82238334	7.47884601	7.47884601	-16.58822349
1.62	-16.27822853	0.27105316	0.94657722	37.76335835	37.76335835	-29.28888159	-29.28888159	7.41360116	7.41360116	-16.26990032
1.63	-16.03775125	0.27367307	0.94833998	37.04015994	37.04015994	-28.7737837	-28.7737837	7.35694123	7.35694123	-15.95755568
1.64	-15.79404793	0.27629206	0.95004631	36.32333821	36.32333821	-28.27406592	-28.27406592	7.30243927	7.30243927	-15.65166025
1.65	-15.54794769	0.27890633	0.9516991	35.61269161	35.61269161	-27.78679266	-27.78679266	7.24522286	7.24522286	-15.35251723
1.66	-15.30020853	0.28151257	0.9533018	34.90787802	34.90787802	-27.30942078	-27.30942078	7.18250831	7.18250831	-15.06038809
1.67	-15.05105605	0.28410868	0.9548582	34.20811249	34.20811249	-26.84004773	-26.84004773	7.11313114	7.11313114	-14.77585461
1.68	-14.79921368	0.28669488	0.95637399	33.51139087	33.51139087	-26.37752698	-26.37752698	7.03594345	7.03594345	-14.50143225
1.69	-14.55450386	0.28926221	0.95782675	32.8295702	32.8295702	-25.92472967	-25.92472967	6.95413778	6.95413778	-14.225173
1.7	-14.30531144	0.29181903	0.95924817	32.14876693	32.14876693	-25.47917857	-25.47917857	6.86269841	6.86269841	-13.96346041
1.71	-14.06546909	0.29436177	0.9605965	31.48514323	31.48514323	-25.04205161	-25.04205161	6.76883882	6.76883882	-13.69703459
1.72	-13.82551599	0.29687908	0.96190924	30.82963372	30.82963372	-24.61498431	-24.61498431	6.66905566	6.66905566	-13.44119222
1.73	-13.58765822	0.29937692	0.96317375	30.18408358	30.18408358	-24.19828395	-24.19828395	6.56661245	6.56661245	-13.19174704
1.74	-13.35234999	0.30185016	0.96439146	29.54882292	29.54882292	-23.79163817	-23.79163817	6.46504595	6.46504595	-12.94899438
1.75	-13.12009064	0.30429518	0.96556381	28.92388657	28.92388657	-23.39442631	-23.39442631	6.36825781	6.36825781	-12.71291832
